<svg xmlns="http://www.w3.org/2000/svg" viewBox="0 0 64 64">
  <defs>
    <linearGradient id="g" x1="10" y1="8" x2="56" y2="58" gradientUnits="userSpaceOnUse">
      <stop offset="0" stop-color="#27f5ff"/>
      <stop offset="0.55" stop-color="#9b5cff"/>
      <stop offset="1" stop-color="#ff4f8b"/>
    </linearGradient>
    <filter id="s" x="-30%" y="-30%" width="160%" height="160%">
      <feDropShadow dx="0" dy="0" stdDeviation="4" flood-color="#27f5ff" flood-opacity="0.45"/>
    </filter>
  </defs>
  <rect width="64" height="64" rx="18" fill="#050713"/>
  <path d="M14 18c0-2.2 1.8-4 4-4h28c2.2 0 4 1.8 4 4v28c0 2.2-1.8 4-4 4H18c-2.2 0-4-1.8-4-4V18Z" fill="url(#g)" opacity="0.92" filter="url(#s)"/>
  <path d="M23 24h18v5H23v-5Zm0 10h11v5H23v-5Zm16 9 6 6-4 4-6-6a13 13 0 1 1 4-4Zm-7-2a8 8 0 1 0 0-16 8 8 0 0 0 0 16Z" fill="#03111a"/>
  <circle cx="48" cy="16" r="4" fill="#00ffa8"/>
</svg>
